# xmcd CD database file
#
# Track frame offsets:
#	150
#	25150
#	49401
#	70770
#	83231
#	99887
#	112528
#	135872
#	153153
#	169225
#	180900
#	197648
#	214999
#
# Disc length: 3137 seconds
#
# Revision: 0
# Processed by: cddbd v1.5.2PL0 Copyright (c) Steve Scherf et al.
# Submitted via: CDex 1.50
#
DISCID=9a0c3f0d
DTITLE=Johnny Winter  - Live At Royal Albert Hall - 4_17_70 (First Winter)
DYEAR=1900
DGENRE=Blues
TTITLE0=Memory Pain
TTITLE1=I'm Not Sure
TTITLE2=The Good Love
TTITLE3=Slippin' and Slidin'
TTITLE4=Miss Ann
TTITLE5=Johnny B. Goode
TTITLE6=Highway 61 Revisited
TTITLE7=I Love Everybody
TTITLE8=Hustled Down in Texas
TTITLE9=I Hate Everybody
TTITLE10=Fast Life Rider
TTITLE11=Early in the Morning
TTITLE12=Tell the Truth (Instrumental)
EXTD=
EXTT0=
EXTT1=
EXTT2=
EXTT3=
EXTT4=
EXTT5=
EXTT6=
EXTT7=
EXTT8=
EXTT9=
EXTT10=
EXTT11=
EXTT12=
PLAYORDER=
